<svg version="1.1" id="Layer_1" xmlns="http://www.w3.org/2000/svg" xmlns:xlink="http://www.w3.org/1999/xlink" x="0px" y="0px"
	 width="100%" viewBox="0 0 491 508" enable-background="new 0 0 491 508" xml:space="preserve">
<path fill="#000000" opacity="1.000000" stroke="none" 
	d="
M492.000000,199.000000 
	C492.000000,302.666656 492.000000,405.833282 492.000000,508.999939 
	C328.333405,508.999969 164.666794,508.999969 1.000143,509.000000 
	C1.000095,339.666779 1.000095,170.333542 1.000048,1.000234 
	C164.666519,1.000156 328.333038,1.000156 491.999786,1.000078 
	C492.000000,66.833336 492.000000,132.666672 492.000000,199.000000 
M432.948853,342.441254 
	C432.633911,342.259155 432.319000,342.077026 431.787079,341.377014 
	C431.212677,340.915436 430.638306,340.453857 430.042023,339.158020 
	C430.529022,336.684937 431.016052,334.211853 431.705719,331.697968 
	C431.705719,331.697968 431.743011,331.494598 432.246399,331.165436 
	C433.185944,330.129333 434.125458,329.093201 434.997131,328.017883 
	C434.997131,328.017883 435.048370,328.077606 435.791595,328.050293 
	C442.814850,319.816010 443.252045,311.663605 436.701416,304.259491 
	C434.926392,302.822205 433.148346,301.388672 431.377014,299.946838 
	C427.899231,297.115997 427.109619,293.969269 430.221527,290.332855 
	C432.251678,287.960510 434.269867,285.577118 436.250519,283.163452 
	C439.564178,279.125427 442.723663,274.598999 440.459381,269.351257 
	C438.798981,265.503052 435.633148,262.196533 432.731293,259.020416 
	C429.460419,255.440338 429.313782,252.540207 432.482788,248.890121 
	C434.266693,246.835342 435.995575,244.500076 436.934845,241.986801 
	C440.225952,233.180359 436.958893,225.855789 431.440460,218.941513 
	C426.618744,212.900238 426.882446,211.277847 431.967987,205.556488 
	C438.416229,198.302032 440.019440,187.311554 436.062256,180.548203 
	C433.401917,176.001297 431.289001,171.124435 429.086182,166.324066 
	C428.136566,164.254700 428.101196,163.023346 431.100769,161.746887 
	C439.769104,158.058014 443.255615,148.038834 438.958160,139.466644 
	C436.670227,134.902924 433.267303,130.884491 430.251099,126.704002 
	C427.920929,123.474380 426.818695,120.685524 431.202759,118.089828 
	C433.007904,117.021065 434.309509,115.102104 435.840546,113.570236 
	C441.720337,107.687347 441.015778,98.692398 434.286530,93.732269 
	C429.658691,90.321152 429.031921,86.642487 431.917542,82.070160 
	C433.897003,78.933716 435.554626,75.582954 437.208282,72.254562 
	C440.136047,66.361778 438.806213,60.523754 435.078979,55.890419 
	C430.724426,50.477192 424.507080,48.007114 417.568390,50.956486 
	C412.590515,53.072403 407.933868,55.944054 403.384735,58.346107 
	C401.184692,56.014069 399.001617,53.586227 396.695770,51.281174 
	C392.773163,47.359966 379.151398,46.591190 374.871094,49.998440 
	C374.522675,50.275776 374.301941,50.707706 373.990112,51.037792 
	C371.119446,54.076149 368.415466,57.310883 365.257050,60.014191 
	C364.344086,60.795593 361.901398,60.513336 360.549713,59.882999 
	C358.685059,59.013454 357.198822,57.340134 355.535034,56.030701 
	C351.761932,53.061184 348.344330,49.311451 344.101379,47.356838 
	C339.564972,45.267029 334.255219,44.720203 329.512451,47.992119 
	C326.425568,50.121677 323.018768,51.862740 320.208466,54.300297 
	C316.034088,57.921009 313.306763,57.087345 309.527069,53.257988 
	C302.924957,46.569111 294.526642,43.934547 285.420471,47.455818 
	C280.823181,49.233551 276.662720,52.290222 272.558807,55.135059 
	C270.331665,56.678905 268.729126,56.923569 266.616882,55.151302 
	C264.006714,52.961269 261.475952,50.163845 258.405853,49.133076 
	C249.950348,46.294186 241.783844,47.482845 234.573746,53.123833 
	C231.980530,55.152679 229.467255,57.283684 226.378860,59.808395 
	C222.802246,51.028431 216.651321,47.340057 207.948227,48.031109 
	C201.735275,48.524433 196.111954,50.232220 191.435165,54.753372 
	C189.520676,56.604164 186.896698,58.021442 184.346466,58.699883 
	C183.720413,58.866425 182.134003,55.349838 180.951035,53.551563 
	C180.682678,53.143612 180.189377,52.885487 179.912155,52.481224 
	C176.567657,47.604206 171.436554,47.910244 166.428146,47.739754 
	C161.551056,47.573738 156.644089,47.262413 153.072525,51.518280 
	C151.289474,53.642963 149.762558,55.982834 147.976135,58.104424 
	C144.553650,62.169067 141.580673,62.136063 138.902710,57.489586 
	C135.887085,52.257275 131.910080,49.654125 125.998192,47.535400 
	C118.182045,44.734222 112.602379,47.066425 107.325363,51.416557 
	C98.071785,59.044804 98.275002,59.291321 89.390694,50.878918 
	C82.891678,44.725101 68.302246,43.905602 61.276443,49.363388 
	C60.390884,50.051304 59.562695,50.991451 59.082767,51.994152 
	C56.008366,58.417412 54.508869,64.862015 64.033432,72.640366 
	C70.949875,78.288757 69.646309,84.036125 61.658531,88.138313 
	C58.799519,89.606583 55.661007,92.379646 54.665672,95.254921 
	C52.373081,101.877625 57.269245,112.553436 63.463100,116.815048 
	C64.667435,117.643684 65.900307,118.464561 66.964821,119.455711 
	C69.222374,121.557693 72.390808,123.613869 67.305267,126.269379 
	C65.705536,127.104706 64.500114,128.699020 63.122318,129.954834 
	C58.981213,133.729309 54.864330,136.887177 54.710094,143.797607 
	C54.528656,151.927048 56.480217,157.473984 64.459389,160.171417 
	C65.182869,160.416016 65.702614,161.250000 66.329483,161.795898 
	C69.336517,164.414536 68.376900,166.702545 65.643501,168.682312 
	C63.520573,170.219910 61.139812,171.416077 59.090988,173.038467 
	C54.432549,176.727280 51.930706,187.893570 55.284866,192.626160 
	C57.900726,196.317047 61.432537,199.516998 65.042709,202.307022 
	C70.169701,206.269333 70.234512,207.097137 64.980629,211.096039 
	C61.784706,213.528534 57.777794,215.995117 56.307766,219.387772 
	C52.029560,229.261368 53.133053,237.491837 63.626751,244.197525 
	C68.335754,247.206696 68.341904,250.182465 63.387108,252.867081 
	C57.607349,255.998703 55.609013,261.690399 55.351845,266.956787 
	C55.001888,274.123596 58.810894,280.482330 64.796852,284.892212 
	C69.648323,288.466309 69.559395,292.413300 64.240036,295.405914 
	C57.580795,299.152374 55.028992,305.821625 54.341969,312.519379 
	C53.634125,319.420105 59.095879,323.992371 64.350357,327.604797 
	C68.968033,330.779358 69.163940,333.181793 64.895874,337.076904 
	C58.948029,342.504974 53.404343,348.081268 54.811207,357.561737 
	C55.443569,361.823059 55.216724,366.178497 58.289001,369.488678 
	C60.939255,372.344177 64.064468,374.758820 67.156509,377.526642 
	C59.974293,382.692841 52.667969,387.099121 52.877415,397.435089 
	C53.077835,407.325531 60.372616,411.537048 67.298149,416.438629 
	C57.845978,421.450287 54.067402,431.117462 57.244858,440.721893 
	C59.444366,447.370300 69.964798,451.608734 78.053551,449.536255 
	C84.118431,447.982330 86.898178,443.208405 90.046921,438.669678 
	C93.195183,434.131592 94.893448,434.244232 98.303429,438.690674 
	C100.845726,442.005737 103.372398,445.697327 106.761749,447.911194 
	C111.615288,451.081451 117.341484,453.818146 123.270760,450.743011 
	C127.349602,448.627594 131.208313,445.820526 134.600388,442.707001 
	C140.565536,437.231689 140.469894,437.145050 146.287674,442.626282 
	C148.859253,445.049042 151.668396,447.826721 154.876892,448.844879 
	C162.453201,451.249084 169.556870,450.203369 175.595276,444.053192 
	C178.931152,440.655548 181.632187,441.355652 184.678238,445.196411 
	C191.518753,453.821594 204.470337,455.766388 213.858795,449.582703 
	C217.131241,447.427307 220.233734,444.888367 223.763290,443.302155 
	C225.510025,442.517181 228.759338,442.663177 230.113510,443.815796 
	C237.858032,450.407654 246.529022,451.289734 255.931473,449.052887 
	C257.165009,448.759430 258.485107,448.498047 259.542938,447.855835 
	C263.876465,445.224945 268.123871,442.452240 272.371521,439.751770 
	C280.833374,452.488831 294.313080,454.194916 304.829071,444.591888 
	C308.856781,440.913879 313.895050,440.903442 318.102173,444.564362 
	C326.709839,452.054504 338.513580,452.256836 347.269623,445.407684 
	C349.386963,443.751495 352.192688,442.797607 354.829254,442.021332 
	C359.736603,440.576508 362.421936,444.423584 365.344025,447.171967 
	C374.659332,455.933594 386.030792,455.032776 393.634338,444.898712 
	C395.365601,442.591278 397.566101,440.635864 399.584747,438.481964 
	C405.885559,445.657501 413.031708,450.663330 422.490295,450.051453 
	C433.607513,449.332214 438.124451,441.202209 434.950470,432.461792 
	C433.866821,429.477661 432.076019,426.729675 430.444794,423.970490 
	C428.634979,420.909149 428.212585,418.275238 431.522430,415.832855 
	C433.147736,414.633514 434.811981,413.136078 435.732178,411.390533 
	C440.757141,401.858429 438.848389,392.950806 430.688843,385.167908 
	C427.952911,382.558289 426.085876,376.874146 430.606171,374.091187 
	C435.803162,370.891693 437.856049,365.908691 440.355286,361.013733 
	C442.154572,357.489716 439.631409,349.852173 436.027924,347.339813 
	C435.697540,346.864929 435.367126,346.390045 435.025909,345.994537 
	C435.025909,345.994537 435.105377,346.004883 435.001587,345.373199 
	C434.679810,344.889984 434.358002,344.406799 434.019592,343.987701 
	C434.019592,343.987701 434.085754,343.991394 433.951202,343.447021 
	C433.638824,343.266418 433.326477,343.085846 433.013214,342.986206 
	C433.013214,342.986206 433.094208,342.986755 432.948853,342.441254 
z"/>
<path fill="#FD6E42" opacity="1.000000" stroke="none" 
	d="
M436.116364,347.974091 
	C439.631409,349.852173 442.154572,357.489716 440.355286,361.013733 
	C437.856049,365.908691 435.803162,370.891693 430.606171,374.091187 
	C426.085876,376.874146 427.952911,382.558289 430.688843,385.167908 
	C438.848389,392.950806 440.757141,401.858429 435.732178,411.390533 
	C434.811981,413.136078 433.147736,414.633514 431.522430,415.832855 
	C428.212585,418.275238 428.634979,420.909149 430.444794,423.970490 
	C432.076019,426.729675 433.866821,429.477661 434.950470,432.461792 
	C438.124451,441.202209 433.607513,449.332214 422.490295,450.051453 
	C413.031708,450.663330 405.885559,445.657501 399.584747,438.481964 
	C397.566101,440.635864 395.365601,442.591278 393.634338,444.898712 
	C386.030792,455.032776 374.659332,455.933594 365.344025,447.171967 
	C362.421936,444.423584 359.736603,440.576508 354.829254,442.021332 
	C352.192688,442.797607 349.386963,443.751495 347.269623,445.407684 
	C338.513580,452.256836 326.709839,452.054504 318.102173,444.564362 
	C313.895050,440.903442 308.856781,440.913879 304.829071,444.591888 
	C294.313080,454.194916 280.833374,452.488831 272.371521,439.751770 
	C268.123871,442.452240 263.876465,445.224945 259.542938,447.855835 
	C258.485107,448.498047 257.165009,448.759430 255.931473,449.052887 
	C246.529022,451.289734 237.858032,450.407654 230.113510,443.815796 
	C228.759338,442.663177 225.510025,442.517181 223.763290,443.302155 
	C220.233734,444.888367 217.131241,447.427307 213.858795,449.582703 
	C204.470337,455.766388 191.518753,453.821594 184.678238,445.196411 
	C181.632187,441.355652 178.931152,440.655548 175.595276,444.053192 
	C169.556870,450.203369 162.453201,451.249084 154.876892,448.844879 
	C151.668396,447.826721 148.859253,445.049042 146.287674,442.626282 
	C140.469894,437.145050 140.565536,437.231689 134.600388,442.707001 
	C131.208313,445.820526 127.349602,448.627594 123.270760,450.743011 
	C117.341484,453.818146 111.615288,451.081451 106.761749,447.911194 
	C103.372398,445.697327 100.845726,442.005737 98.303429,438.690674 
	C94.893448,434.244232 93.195183,434.131592 90.046921,438.669678 
	C86.898178,443.208405 84.118431,447.982330 78.053551,449.536255 
	C69.964798,451.608734 59.444366,447.370300 57.244858,440.721893 
	C54.067402,431.117462 57.845978,421.450287 67.298149,416.438629 
	C60.372616,411.537048 53.077835,407.325531 52.877415,397.435089 
	C52.667969,387.099121 59.974293,382.692841 67.156509,377.526642 
	C64.064468,374.758820 60.939255,372.344177 58.289001,369.488678 
	C55.216724,366.178497 55.443569,361.823059 54.811207,357.561737 
	C53.404343,348.081268 58.948029,342.504974 64.895874,337.076904 
	C69.163940,333.181793 68.968033,330.779358 64.350357,327.604797 
	C59.095879,323.992371 53.634125,319.420105 54.341969,312.519379 
	C55.028992,305.821625 57.580795,299.152374 64.240036,295.405914 
	C69.559395,292.413300 69.648323,288.466309 64.796852,284.892212 
	C58.810894,280.482330 55.001888,274.123596 55.351845,266.956787 
	C55.609013,261.690399 57.607349,255.998703 63.387108,252.867081 
	C68.341904,250.182465 68.335754,247.206696 63.626751,244.197525 
	C53.133053,237.491837 52.029560,229.261368 56.307766,219.387772 
	C57.777794,215.995117 61.784706,213.528534 64.980629,211.096039 
	C70.234512,207.097137 70.169701,206.269333 65.042709,202.307022 
	C61.432537,199.516998 57.900726,196.317047 55.284866,192.626160 
	C51.930706,187.893570 54.432549,176.727280 59.090988,173.038467 
	C61.139812,171.416077 63.520573,170.219910 65.643501,168.682312 
	C68.376900,166.702545 69.336517,164.414536 66.329483,161.795898 
	C65.702614,161.250000 65.182869,160.416016 64.459389,160.171417 
	C56.480217,157.473984 54.528656,151.927048 54.710094,143.797607 
	C54.864330,136.887177 58.981213,133.729309 63.122318,129.954834 
	C64.500114,128.699020 65.705536,127.104706 67.305267,126.269379 
	C72.390808,123.613869 69.222374,121.557693 66.964821,119.455711 
	C65.900307,118.464561 64.667435,117.643684 63.463100,116.815048 
	C57.269245,112.553436 52.373081,101.877625 54.665672,95.254921 
	C55.661007,92.379646 58.799519,89.606583 61.658531,88.138313 
	C69.646309,84.036125 70.949875,78.288757 64.033432,72.640366 
	C54.508869,64.862015 56.008366,58.417412 59.082767,51.994152 
	C59.562695,50.991451 60.390884,50.051304 61.276443,49.363388 
	C68.302246,43.905602 82.891678,44.725101 89.390694,50.878918 
	C98.275002,59.291321 98.071785,59.044804 107.325363,51.416557 
	C112.602379,47.066425 118.182045,44.734222 125.998192,47.535400 
	C131.910080,49.654125 135.887085,52.257275 138.902710,57.489586 
	C141.580673,62.136063 144.553650,62.169067 147.976135,58.104424 
	C149.762558,55.982834 151.289474,53.642963 153.072525,51.518280 
	C156.644089,47.262413 161.551056,47.573738 166.428146,47.739754 
	C171.436554,47.910244 176.567657,47.604206 179.912155,52.481224 
	C180.189377,52.885487 180.682678,53.143612 180.951035,53.551563 
	C182.134003,55.349838 183.720413,58.866425 184.346466,58.699883 
	C186.896698,58.021442 189.520676,56.604164 191.435165,54.753372 
	C196.111954,50.232220 201.735275,48.524433 207.948227,48.031109 
	C216.651321,47.340057 222.802246,51.028431 226.378860,59.808395 
	C229.467255,57.283684 231.980530,55.152679 234.573746,53.123833 
	C241.783844,47.482845 249.950348,46.294186 258.405853,49.133076 
	C261.475952,50.163845 264.006714,52.961269 266.616882,55.151302 
	C268.729126,56.923569 270.331665,56.678905 272.558807,55.135059 
	C276.662720,52.290222 280.823181,49.233551 285.420471,47.455818 
	C294.526642,43.934547 302.924957,46.569111 309.527069,53.257988 
	C313.306763,57.087345 316.034088,57.921009 320.208466,54.300297 
	C323.018768,51.862740 326.425568,50.121677 329.512451,47.992119 
	C334.255219,44.720203 339.564972,45.267029 344.101379,47.356838 
	C348.344330,49.311451 351.761932,53.061184 355.535034,56.030701 
	C357.198822,57.340134 358.685059,59.013454 360.549713,59.882999 
	C361.901398,60.513336 364.344086,60.795593 365.257050,60.014191 
	C368.415466,57.310883 371.119446,54.076149 373.990112,51.037792 
	C374.301941,50.707706 374.522675,50.275776 374.871094,49.998440 
	C379.151398,46.591190 392.773163,47.359966 396.695770,51.281174 
	C399.001617,53.586227 401.184692,56.014069 403.384735,58.346107 
	C407.933868,55.944054 412.590515,53.072403 417.568390,50.956486 
	C424.507080,48.007114 430.724426,50.477192 435.078979,55.890419 
	C438.806213,60.523754 440.136047,66.361778 437.208282,72.254562 
	C435.554626,75.582954 433.897003,78.933716 431.917542,82.070160 
	C429.031921,86.642487 429.658691,90.321152 434.286530,93.732269 
	C441.015778,98.692398 441.720337,107.687347 435.840546,113.570236 
	C434.309509,115.102104 433.007904,117.021065 431.202759,118.089828 
	C426.818695,120.685524 427.920929,123.474380 430.251099,126.704002 
	C433.267303,130.884491 436.670227,134.902924 438.958160,139.466644 
	C443.255615,148.038834 439.769104,158.058014 431.100769,161.746887 
	C428.101196,163.023346 428.136566,164.254700 429.086182,166.324066 
	C431.289001,171.124435 433.401917,176.001297 436.062256,180.548203 
	C440.019440,187.311554 438.416229,198.302032 431.967987,205.556488 
	C426.882446,211.277847 426.618744,212.900238 431.440460,218.941513 
	C436.958893,225.855789 440.225952,233.180359 436.934845,241.986801 
	C435.995575,244.500076 434.266693,246.835342 432.482788,248.890121 
	C429.313782,252.540207 429.460419,255.440338 432.731293,259.020416 
	C435.633148,262.196533 438.798981,265.503052 440.459381,269.351257 
	C442.723663,274.598999 439.564178,279.125427 436.250519,283.163452 
	C434.269867,285.577118 432.251678,287.960510 430.221527,290.332855 
	C427.109619,293.969269 427.899231,297.115997 431.377014,299.946838 
	C433.148346,301.388672 434.926392,302.822205 436.933502,304.932648 
	C440.845276,312.412354 440.480103,318.986328 436.114105,325.382477 
	C435.582855,326.160675 435.395264,327.173523 435.048370,328.077606 
	C435.048370,328.077606 434.997131,328.017883 434.658508,328.050415 
	C433.460938,329.220184 432.601959,330.357391 431.742981,331.494568 
	C431.743011,331.494598 431.705719,331.697968 431.225372,331.643677 
	C427.162567,333.911835 426.956116,336.458679 430.063904,339.992279 
	C430.638306,340.453857 431.212677,340.915436 432.040039,341.852844 
	C432.560089,342.548035 432.827148,342.767395 433.094208,342.986755 
	C433.094208,342.986755 433.013214,342.986206 433.155945,343.160370 
	C433.561035,343.553497 433.823395,343.772430 434.085754,343.991394 
	C434.085754,343.991394 434.019592,343.987701 434.084778,344.250305 
	C434.468445,345.010223 434.786896,345.507538 435.105377,346.004883 
	C435.105377,346.004883 435.025909,345.994537 435.095520,346.246277 
	C435.482208,346.990051 435.799286,347.482086 436.116364,347.974091 
M237.589584,352.577789 
	C237.449570,352.697784 237.309555,352.817780 236.703903,352.772980 
	C236.190292,353.167358 235.676682,353.561737 235.027222,353.948730 
	C235.027222,353.948730 235.018890,354.084564 234.265747,354.144440 
	C225.740814,356.835632 222.800507,355.664581 221.022293,348.439667 
	C221.022293,348.439667 220.825073,348.077606 220.797668,347.369812 
	C220.661606,346.919556 220.525528,346.469269 220.545197,345.140991 
	C220.116714,337.228210 219.826645,329.303284 219.134201,321.413666 
	C219.007141,319.966064 217.245804,318.661957 216.238815,317.291595 
	C215.349243,318.775665 213.668579,320.280365 213.706604,321.740295 
	C213.873962,328.167480 214.537247,334.581787 214.908569,341.894806 
	C215.529510,345.362732 216.150467,348.830627 216.862976,352.664856 
	C216.862976,352.664856 217.087616,352.968353 217.098251,353.602081 
	C217.878677,354.540558 218.659119,355.479004 219.465012,356.538574 
	C219.465012,356.538574 219.588287,356.528015 219.815903,356.959991 
	C220.054321,357.214050 220.347534,357.333252 220.704605,357.371979 
	C220.704605,357.371979 220.759995,357.372162 221.073456,358.028473 
	C225.379288,358.322205 229.682373,358.671021 233.992081,358.887360 
	C236.285202,359.002441 238.678116,358.482971 240.871094,358.960815 
	C245.598923,359.991028 248.147095,358.631104 247.861618,354.460571 
	C247.045334,342.534821 246.043182,330.621765 245.229385,318.695831 
	C245.031601,315.797363 243.639465,315.093109 241.000732,315.300201 
	C238.437073,315.501373 236.830811,316.321960 237.115997,319.199677 
	C237.867844,326.786743 238.621628,334.373657 239.302139,342.729553 
	C239.386246,343.495117 239.470337,344.260651 239.269485,345.787292 
	C239.387039,346.846893 239.504578,347.906494 239.336395,349.943878 
	C239.259216,350.274536 239.182037,350.605194 238.763672,351.057404 
	C238.515167,351.447601 238.266663,351.837769 237.589584,352.577789 
M343.684265,193.447586 
	C343.506348,193.815918 343.328430,194.184250 343.157410,194.809875 
	C343.157410,194.809875 342.978760,194.995163 342.291656,195.188126 
	C341.270538,197.949631 340.249451,200.711136 339.248230,203.749786 
	C339.248230,203.749786 339.094818,203.981476 338.575012,204.493118 
	C337.742950,206.791275 336.670441,209.033600 336.121521,211.397522 
	C334.000458,220.531265 333.827728,229.722534 336.115662,238.853012 
	C337.690063,245.136078 337.944763,252.001846 343.093994,256.739716 
	C343.093994,256.739716 343.417603,256.673065 343.277191,257.418030 
	C344.562012,258.915131 345.846863,260.412231 347.049255,261.958313 
	C347.049255,261.958313 347.098297,261.875885 347.157501,262.586365 
	C348.256866,263.547089 349.356232,264.507843 350.524445,265.475128 
	C350.524445,265.475128 350.532745,265.543762 350.485321,266.268555 
	C352.205017,267.392792 353.924744,268.516998 355.896088,269.660797 
	C355.896088,269.660797 356.048889,269.861694 356.267426,270.522766 
	C364.689697,276.865204 380.058807,277.831177 388.778809,272.470581 
	C389.680206,271.916473 390.229706,270.789948 391.313873,269.472137 
	C392.143921,268.954285 392.973969,268.436401 394.439209,267.790100 
	C394.939728,267.147064 395.440216,266.504028 396.125336,265.457275 
	C396.300995,265.202667 396.537354,265.032318 397.534454,264.843231 
	C404.284668,261.787415 405.186188,254.762253 407.721649,249.065018 
	C409.173828,245.801926 408.758179,241.707565 409.147369,237.337311 
	C409.228607,236.912369 409.309845,236.487442 409.972534,235.675598 
	C414.150391,223.740173 411.965546,212.294373 407.228607,201.074844 
	C407.054565,200.662582 406.085571,200.585922 405.187439,200.006073 
	C405.017090,199.743729 404.920197,199.456589 404.928467,198.403427 
	C403.641479,196.576263 402.354523,194.749100 400.887909,192.758163 
	C400.887909,192.758163 400.878113,192.515274 400.577148,191.929092 
	C400.235779,191.661133 399.894379,191.393173 399.061249,190.804199 
	C398.355957,189.865158 397.650635,188.926132 396.821381,187.432007 
	C396.375275,187.130020 395.929138,186.828018 395.379089,186.553421 
	C395.379089,186.553421 395.337097,186.454483 395.458252,185.764374 
	C390.688477,179.442673 384.007385,176.516312 376.420715,176.194397 
	C372.256927,176.017731 367.403198,174.270523 363.329987,178.811691 
	C362.899475,178.873154 362.468964,178.934616 361.489014,178.679565 
	C356.519440,179.759674 351.113525,180.156662 349.312622,186.328278 
	C349.312622,186.328278 349.441406,186.317459 348.889679,186.489563 
	C348.569000,186.942276 348.248322,187.395004 347.696625,188.286224 
	C347.338684,188.624222 346.980774,188.962234 345.921997,189.489990 
	C345.325378,190.705292 344.728760,191.920593 344.092804,193.077957 
	C344.092804,193.077957 344.157440,193.050995 343.684265,193.447586 
M146.527191,332.576141 
	C146.527191,332.576141 146.520828,332.655396 146.450226,333.355194 
	C147.437012,334.046326 148.423813,334.737457 149.173248,335.456512 
	C149.173248,335.456512 149.411728,335.463867 149.651123,336.051941 
	C150.204071,336.295654 150.757019,336.539368 151.675095,336.850586 
	C151.675095,336.850586 151.998795,337.032501 152.357788,337.603851 
	C155.013687,338.930481 157.669601,340.257111 160.407944,341.586029 
	C160.407944,341.586029 160.417267,341.667938 160.250183,342.524933 
	C160.383423,350.844482 160.383698,350.842865 151.672058,349.357208 
	C151.357056,349.303467 151.025879,349.344543 150.858978,349.211639 
	C150.858978,349.211639 150.694397,349.353271 150.681885,349.080139 
	C150.681885,349.080139 150.365616,348.886414 150.365616,348.886414 
	C150.365616,348.886414 150.047256,349.084473 149.479263,349.120056 
	C149.101852,349.156738 148.724442,349.193420 147.676559,349.413757 
	C145.797577,351.056396 143.365372,352.633698 147.064560,354.933319 
	C147.064560,354.933319 147.069626,354.972321 147.193832,355.661377 
	C148.012756,356.420929 148.715988,357.398315 149.669403,357.904694 
	C155.890518,361.209198 162.069138,359.796570 168.447662,358.036743 
	C173.652542,356.600708 176.555054,353.046631 177.494614,348.481049 
	C178.537918,343.411346 178.980530,337.808258 173.177139,333.926025 
	C172.731049,333.459015 172.284973,332.992035 171.537964,331.933502 
	C170.968124,331.644714 170.398270,331.355957 169.425232,330.952087 
	C169.425232,330.952087 169.081970,330.711273 168.779556,330.121094 
	C166.179504,329.082764 163.579453,328.044403 161.002487,326.994385 
	C161.002487,326.994385 160.997116,327.019470 160.836227,326.218384 
	C160.337189,324.032684 159.838135,321.846954 159.398575,319.415344 
	C159.398575,319.415344 159.638550,319.335266 160.475891,319.639679 
	C162.493210,319.982880 164.510544,320.326080 167.077194,320.833984 
	C167.702866,321.249420 168.328522,321.664856 168.973236,322.449432 
	C169.325333,322.571472 169.677444,322.693481 170.623413,322.862213 
	C171.214493,322.809052 171.805573,322.755890 173.103592,322.554291 
	C175.261932,321.035278 177.416458,319.515594 173.834930,316.832001 
	C173.834930,316.832001 173.689117,316.552063 173.400558,316.000793 
	C173.044495,315.799927 172.688446,315.599030 172.104843,315.399872 
	C172.104843,315.399872 171.946182,315.236725 171.586502,314.741577 
	C171.037247,314.510376 170.487976,314.279205 169.990601,314.007385 
	C169.990601,314.007385 169.971313,314.070374 169.605957,313.441284 
	C165.951050,310.510773 162.082504,310.039001 157.309967,312.651123 
	C156.852249,312.699371 156.394516,312.747650 155.384308,312.488312 
	C152.917496,313.990295 150.450668,315.492279 147.996338,316.996338 
	C147.996338,316.996338 147.993179,316.983612 147.309326,317.129639 
	C144.337952,318.965668 143.410461,321.523193 144.733353,325.656769 
	C144.808517,326.778137 144.883667,327.899475 144.614807,329.511353 
	C145.226578,330.526367 145.838364,331.541351 146.527191,332.576141 
M313.740295,312.624268 
	C313.544769,312.343170 313.289398,312.135651 312.999023,311.995575 
	C312.999023,311.995575 312.990265,312.021362 312.700836,311.371246 
	C309.113129,309.179810 306.303009,309.443024 304.565369,314.489166 
	C305.301849,316.077057 306.038361,317.664948 306.919525,320.048798 
	C307.056580,320.845642 307.193634,321.642487 307.193146,322.958069 
	C307.050873,323.286163 306.908630,323.614227 306.263123,324.158295 
	C306.418518,325.143402 306.573914,326.128540 306.827698,327.902039 
	C306.775116,329.221161 306.722534,330.540253 306.078125,332.331390 
	C305.764771,343.136047 305.128510,353.947021 305.341125,364.741333 
	C305.402374,367.850800 308.284668,369.029327 311.164551,365.447205 
	C311.261353,365.304382 311.358154,365.161560 311.916534,364.803192 
	C311.772186,363.827179 311.627808,362.851135 311.378021,361.174744 
	C311.354004,360.467896 311.329987,359.761047 311.506165,358.798950 
	C311.613281,358.457703 311.533997,358.166382 311.166931,357.015869 
	C311.194397,353.030518 311.221893,349.045197 311.537048,344.685272 
	C311.454010,344.103485 311.371002,343.521698 311.250458,342.229401 
	C311.324677,341.522675 311.398895,340.815948 312.026520,339.622467 
	C312.317871,337.689178 312.801788,335.762054 312.863464,333.821442 
	C313.029846,328.585907 313.016357,323.344635 313.181244,317.650330 
	C313.181244,317.650330 313.228210,317.185028 313.570709,317.105591 
	C313.570709,317.105591 313.905304,316.997681 314.502777,316.786682 
	C314.309448,315.549347 314.116119,314.311981 313.951752,313.037292 
	C313.951752,313.037292 313.960602,313.071686 313.740295,312.624268 
M291.139801,347.207733 
	C291.654724,337.139221 292.169678,327.070709 292.851929,316.140045 
	C292.852173,314.092957 292.852448,312.045868 293.151276,309.421326 
	C293.709808,306.289215 292.574738,304.870422 289.221222,304.713379 
	C286.094971,304.567017 284.480835,305.542389 284.255432,308.716064 
	C284.036865,311.793365 283.712616,314.863190 283.398254,318.340485 
	C281.238373,317.873108 279.640320,317.586578 278.074066,317.178131 
	C271.080841,315.354462 265.681763,317.813416 261.441650,323.347565 
	C255.820694,330.683990 255.823090,347.192902 261.416199,354.675568 
	C265.181976,359.713531 270.777924,361.425140 276.940979,359.730408 
	C278.495148,359.303070 280.433990,359.276184 281.930847,359.809570 
	C288.869293,362.282043 291.075928,360.817291 290.984741,353.426575 
	C290.974579,352.601288 290.821136,351.777802 290.910492,350.212189 
	C290.872162,349.455200 290.833832,348.698242 291.139801,347.207733 
M303.433716,177.879776 
	C296.096680,178.446091 288.759674,179.012405 280.193634,179.673569 
	C280.193634,173.452576 279.982635,166.351822 280.282135,159.272644 
	C280.433167,155.702072 278.909515,154.940903 275.883514,155.046173 
	C272.055939,155.179337 268.222046,155.163757 264.390991,155.157867 
	C254.009460,155.141922 254.116241,155.129684 254.195435,165.279587 
	C254.457947,198.919296 254.713120,232.559525 254.757599,266.199860 
	C254.763687,270.795929 256.102539,272.384521 260.764709,272.117859 
	C266.057220,271.815125 271.445435,271.927887 276.699524,272.592041 
	C281.250427,273.167328 282.597839,271.788452 282.506622,267.328613 
	C282.148987,249.845810 282.079315,232.357269 281.852875,214.871506 
	C281.811829,211.699417 281.790222,208.682800 286.049042,208.366501 
	C290.114868,208.064545 292.961060,209.570145 293.449158,213.903671 
	C293.876160,217.694824 294.207031,221.518463 294.228668,225.329742 
	C294.309021,239.487473 294.213104,253.646118 294.265656,267.804108 
	C294.273987,270.054077 293.980408,272.669617 297.712524,272.534515 
	C304.697296,272.281738 311.689972,272.140167 318.678802,272.158325 
	C321.710693,272.166199 322.808716,270.970703 322.750000,268.001587 
	C322.315613,246.032516 322.561157,224.028046 321.325806,202.106125 
	C320.719177,191.341812 316.055908,181.711456 303.433716,177.879776 
M101.237923,173.560120 
	C101.453331,186.548798 101.883957,199.538345 101.830750,212.525925 
	C101.761177,229.510391 101.161011,246.492554 101.076782,263.477142 
	C101.025917,273.732056 100.426300,273.010193 110.706459,272.161072 
	C111.700706,272.078949 112.704887,272.100891 113.704445,272.101501 
	C128.366531,272.110229 143.031021,271.977203 157.689331,272.218811 
	C162.522385,272.298431 164.387360,270.549591 164.044418,265.808289 
	C163.816727,262.660400 163.823654,259.459015 164.119324,256.318634 
	C164.530228,251.953949 162.497009,250.908478 158.528870,250.954529 
	C145.699783,251.103424 132.866760,251.059357 120.036720,250.937073 
	C108.470230,250.826828 109.774620,253.436859 109.684715,240.251373 
	C109.663216,237.097168 110.747177,235.746124 113.980766,235.687302 
	C122.637039,235.529877 131.288010,235.003464 139.943909,234.921188 
	C151.044479,234.815659 151.045670,234.940872 151.285156,223.914368 
	C151.425049,217.473587 151.426117,217.263306 144.810944,217.229523 
	C134.817245,217.178467 124.819824,217.375351 114.828285,217.633392 
	C111.110527,217.729416 109.187218,216.532379 109.347054,212.527115 
	C109.672417,204.373856 109.701614,196.205917 110.206604,188.065994 
	C110.276382,186.941254 112.360573,185.021729 113.510841,185.022720 
	C128.988037,185.036026 144.469849,185.175201 159.937805,185.675858 
	C162.922745,185.772461 164.135834,184.829605 164.219467,182.367462 
	C164.376968,177.730820 164.315765,173.074890 164.087173,168.439728 
	C163.727310,161.142685 163.635223,160.977386 156.155258,161.049957 
	C141.671860,161.190460 127.183334,161.946121 112.710464,161.687973 
	C99.503273,161.452423 101.865585,160.666458 101.237923,173.560120 
M187.134537,219.919312 
	C187.658554,216.298447 188.005737,212.641479 188.736191,209.062744 
	C192.573257,190.263504 215.357224,185.814697 226.720169,196.957458 
	C228.211746,198.420120 229.918213,199.663666 231.691132,201.147629 
	C232.932495,199.782303 233.843414,198.844803 234.682648,197.847000 
	C240.252670,191.224380 239.876480,188.935303 232.455505,184.109268 
	C216.360748,173.642471 195.794937,177.723541 185.379822,193.450989 
	C173.950638,210.709732 174.368744,242.918182 186.245438,260.132263 
	C199.071533,278.722382 226.458603,279.286041 240.156265,261.300903 
	C242.335999,258.438873 242.382797,255.931488 239.934769,253.317902 
	C234.894150,247.936356 232.531036,246.280380 229.058502,253.662994 
	C228.715729,254.391724 228.020111,254.951004 227.506958,255.603638 
	C222.247437,262.292542 215.753754,266.780182 206.893356,264.894257 
	C197.333023,262.859375 190.401779,257.067169 188.852570,247.153610 
	C187.500778,238.503250 187.608490,229.624817 187.134537,219.919312 
M341.456360,360.503235 
	C347.314850,360.536621 350.954590,357.264404 353.575806,352.422119 
	C358.024078,344.204620 357.800720,335.440796 356.225464,326.678253 
	C354.819397,318.857117 349.864899,314.667816 342.715790,314.429535 
	C334.727600,314.163269 329.149170,318.323273 326.780609,325.948639 
	C324.481537,333.350220 324.856903,340.614166 326.817932,348.020782 
	C329.068176,356.519867 332.088837,359.439392 341.456360,360.503235 
M188.192505,325.338928 
	C192.798599,329.577637 192.005264,334.856140 191.213394,340.233154 
	C190.318466,346.309937 189.425949,352.406372 188.992783,358.526855 
	C188.470978,365.899780 192.215378,368.954926 199.430954,367.235016 
	C200.642899,366.946106 201.542618,365.347351 202.586609,364.353851 
	C201.500748,363.427887 200.472717,361.793457 199.318954,361.699310 
	C194.473785,361.303772 193.723267,358.514496 194.191147,354.449951 
	C194.912750,348.181396 195.403564,341.886627 196.058640,335.609894 
	C196.276657,333.520905 196.698593,331.453217 196.856308,330.456451 
	C200.176346,329.249664 204.412766,328.751404 204.689255,327.426636 
	C205.809616,322.058594 199.810379,324.770721 197.596069,322.146362 
	C197.780365,320.781311 198.317932,319.112701 198.114563,317.539948 
	C197.964645,316.380554 196.847183,315.346313 196.160843,314.256287 
	C195.202240,314.966705 193.354324,315.788452 193.427094,316.369720 
	C193.962280,320.645081 191.367432,322.722046 188.192505,325.338928 
z"/>
<path fill="#E27052" opacity="1.000000" stroke="none" 
	d="
M435.419983,328.063965 
	C435.395264,327.173523 435.582855,326.160675 436.114105,325.382477 
	C440.480103,318.986328 440.845276,312.412354 437.100708,305.227539 
	C443.252045,311.663605 442.814850,319.816010 435.419983,328.063965 
z"/>
<path fill="#E27052" opacity="1.000000" stroke="none" 
	d="
M430.052979,339.575134 
	C426.956116,336.458679 427.162567,333.911835 431.124023,331.664062 
	C431.016052,334.211853 430.529022,336.684937 430.052979,339.575134 
z"/>
<path fill="#E27052" opacity="1.000000" stroke="none" 
	d="
M431.994690,331.330017 
	C432.601959,330.357391 433.460938,329.220184 434.692444,328.070038 
	C434.125458,329.093201 433.185944,330.129333 431.994690,331.330017 
z"/>
<path fill="#E27052" opacity="1.000000" stroke="none" 
	d="
M436.072144,347.656952 
	C435.799286,347.482086 435.482208,346.990051 435.100952,346.206604 
	C435.367126,346.390045 435.697540,346.864929 436.072144,347.656952 
z"/>
<path fill="#E27052" opacity="1.000000" stroke="none" 
	d="
M435.053467,345.689026 
	C434.786896,345.507538 434.468445,345.010223 434.093079,344.218231 
	C434.358002,344.406799 434.679810,344.889984 435.053467,345.689026 
z"/>
<path fill="#E27052" opacity="1.000000" stroke="none" 
	d="
M434.018494,343.719208 
	C433.823395,343.772430 433.561035,343.553497 433.156372,343.119873 
	C433.326477,343.085846 433.638824,343.266418 434.018494,343.719208 
z"/>
<path fill="#E27052" opacity="1.000000" stroke="none" 
	d="
M433.021545,342.713989 
	C432.827148,342.767395 432.560089,342.548035 432.148560,342.111786 
	C432.319000,342.077026 432.633911,342.259155 433.021545,342.713989 
z"/>
<path fill="#2C245A" opacity="1.000000" stroke="none" 
	d="
M303.825623,177.982849 
	C316.055908,181.711456 320.719177,191.341812 321.325806,202.106125 
	C322.561157,224.028046 322.315613,246.032516 322.750000,268.001587 
	C322.808716,270.970703 321.710693,272.166199 318.678802,272.158325 
	C311.689972,272.140167 304.697296,272.281738 297.712524,272.534515 
	C293.980408,272.669617 294.273987,270.054077 294.265656,267.804108 
	C294.213104,253.646118 294.309021,239.487473 294.228668,225.329742 
	C294.207031,221.518463 293.876160,217.694824 293.449158,213.903671 
	C292.961060,209.570145 290.114868,208.064545 286.049042,208.366501 
	C281.790222,208.682800 281.811829,211.699417 281.852875,214.871506 
	C282.079315,232.357269 282.148987,249.845810 282.506622,267.328613 
	C282.597839,271.788452 281.250427,273.167328 276.699524,272.592041 
	C271.445435,271.927887 266.057220,271.815125 260.764709,272.117859 
	C256.102539,272.384521 254.763687,270.795929 254.757599,266.199860 
	C254.713120,232.559525 254.457947,198.919296 254.195435,165.279587 
	C254.116241,155.129684 254.009460,155.141922 264.390991,155.157867 
	C268.222046,155.163757 272.055939,155.179337 275.883514,155.046173 
	C278.909515,154.940903 280.433167,155.702072 280.282135,159.272644 
	C279.982635,166.351822 280.193634,173.452576 280.193634,179.673569 
	C288.759674,179.012405 296.096680,178.446091 303.825623,177.982849 
z"/>
<path fill="#2F2458" opacity="1.000000" stroke="none" 
	d="
M101.242691,173.073242 
	C101.865585,160.666458 99.503273,161.452423 112.710464,161.687973 
	C127.183334,161.946121 141.671860,161.190460 156.155258,161.049957 
	C163.635223,160.977386 163.727310,161.142685 164.087173,168.439728 
	C164.315765,173.074890 164.376968,177.730820 164.219467,182.367462 
	C164.135834,184.829605 162.922745,185.772461 159.937805,185.675858 
	C144.469849,185.175201 128.988037,185.036026 113.510841,185.022720 
	C112.360573,185.021729 110.276382,186.941254 110.206604,188.065994 
	C109.701614,196.205917 109.672417,204.373856 109.347054,212.527115 
	C109.187218,216.532379 111.110527,217.729416 114.828285,217.633392 
	C124.819824,217.375351 134.817245,217.178467 144.810944,217.229523 
	C151.426117,217.263306 151.425049,217.473587 151.285156,223.914368 
	C151.045670,234.940872 151.044479,234.815659 139.943909,234.921188 
	C131.288010,235.003464 122.637039,235.529877 113.980766,235.687302 
	C110.747177,235.746124 109.663216,237.097168 109.684715,240.251373 
	C109.774620,253.436859 108.470230,250.826828 120.036720,250.937073 
	C132.866760,251.059357 145.699783,251.103424 158.528870,250.954529 
	C162.497009,250.908478 164.530228,251.953949 164.119324,256.318634 
	C163.823654,259.459015 163.816727,262.660400 164.044418,265.808289 
	C164.387360,270.549591 162.522385,272.298431 157.689331,272.218811 
	C143.031021,271.977203 128.366531,272.110229 113.704445,272.101501 
	C112.704887,272.100891 111.700706,272.078949 110.706459,272.161072 
	C100.426300,273.010193 101.025917,273.732056 101.076782,263.477142 
	C101.161011,246.492554 101.761177,229.510391 101.830750,212.525925 
	C101.883957,199.538345 101.453331,186.548798 101.242691,173.073242 
z"/>
<path fill="#342554" opacity="1.000000" stroke="none" 
	d="
M396.834473,264.946228 
	C396.537354,265.032318 396.300995,265.202667 395.743408,265.764099 
	C394.842316,266.686798 394.323151,267.302673 393.804016,267.918549 
	C392.973969,268.436401 392.143921,268.954285 390.773407,269.785645 
	C385.287598,271.330292 380.308319,273.669312 375.405365,273.518951 
	C368.921906,273.320129 362.498260,271.171997 356.048889,269.861694 
	C356.048889,269.861694 355.896088,269.660797 355.553589,269.393433 
	C353.651642,267.931976 352.092194,266.737885 350.532745,265.543762 
	C350.532745,265.543762 350.524445,265.475128 350.363312,265.189392 
	C349.167542,263.894379 348.132935,262.885132 347.098297,261.875885 
	C347.098297,261.875885 347.049255,261.958313 347.022400,261.605286 
	C345.802917,259.725861 344.610260,258.199463 343.417603,256.673065 
	C343.417603,256.673065 343.093994,256.739716 343.220215,256.353973 
	C341.838226,251.773621 340.030426,247.659485 338.877777,243.369339 
	C335.353668,230.252426 336.326202,217.097229 339.094818,203.981476 
	C339.094818,203.981476 339.248230,203.749786 339.509888,203.369049 
	C340.840637,200.323929 341.909698,197.659546 342.978760,194.995163 
	C342.978760,194.995163 343.157410,194.809875 343.421448,194.505646 
	C343.842804,193.817932 344.000122,193.434464 344.157440,193.050995 
	C344.157440,193.050995 344.092804,193.077957 344.394989,192.930176 
	C345.339050,191.621689 345.980957,190.460953 346.622833,189.300232 
	C346.980774,188.962234 347.338684,188.624222 348.083801,187.980743 
	C348.794464,187.222672 349.117920,186.770050 349.441406,186.317444 
	C349.441406,186.317459 349.312622,186.328278 349.664032,186.196503 
	C354.023102,183.708511 358.030762,181.352280 362.038452,178.996063 
	C362.468964,178.934616 362.899475,178.873154 364.049835,178.725479 
	C376.430542,175.488007 386.332245,179.217300 395.337097,186.454483 
	C395.337097,186.454483 395.379089,186.553421 395.521759,186.796265 
	C396.091400,187.355103 396.518341,187.671112 396.945312,187.987106 
	C397.650635,188.926132 398.355957,189.865158 399.442017,191.268890 
	C400.174591,191.994156 400.526337,192.254715 400.878113,192.515274 
	C400.878113,192.515274 400.887909,192.758163 401.022186,193.182739 
	C402.403229,195.453094 403.649994,197.298874 404.896759,199.144653 
	C404.920197,199.456589 405.017090,199.743729 405.374878,200.553146 
	C407.090820,207.316406 409.214325,213.461761 409.965027,219.770508 
	C410.599548,225.102905 409.643311,230.624588 409.391113,236.062500 
	C409.309845,236.487442 409.228607,236.912369 408.989319,238.005676 
	C406.896179,248.373856 402.918182,257.140808 396.834473,264.946228 
M371.900909,185.291855 
	C364.998566,186.564636 359.699341,190.159775 355.674042,195.937851 
	C344.935333,211.352707 344.969543,241.558441 355.873199,256.869812 
	C365.536469,270.439362 386.848969,269.369385 394.875702,254.829285 
	C402.484650,241.045990 403.690186,226.174301 400.544342,211.153488 
	C397.329498,195.803116 386.131317,186.007736 371.900909,185.291855 
z"/>
<path fill="#342554" opacity="1.000000" stroke="none" 
	d="
M187.102936,220.383240 
	C187.608490,229.624817 187.500778,238.503250 188.852570,247.153610 
	C190.401779,257.067169 197.333023,262.859375 206.893356,264.894257 
	C215.753754,266.780182 222.247437,262.292542 227.506958,255.603638 
	C228.020111,254.951004 228.715729,254.391724 229.058502,253.662994 
	C232.531036,246.280380 234.894150,247.936356 239.934769,253.317902 
	C242.382797,255.931488 242.335999,258.438873 240.156265,261.300903 
	C226.458603,279.286041 199.071533,278.722382 186.245438,260.132263 
	C174.368744,242.918182 173.950638,210.709732 185.379822,193.450989 
	C195.794937,177.723541 216.360748,173.642471 232.455505,184.109268 
	C239.876480,188.935303 240.252670,191.224380 234.682648,197.847000 
	C233.843414,198.844803 232.932495,199.782303 231.691132,201.147629 
	C229.918213,199.663666 228.211746,198.420120 226.720169,196.957458 
	C215.357224,185.814697 192.573257,190.263504 188.736191,209.062744 
	C188.005737,212.641479 187.658554,216.298447 187.102936,220.383240 
z"/>
<path fill="#302456" opacity="1.000000" stroke="none" 
	d="
M341.061768,360.491760 
	C332.088837,359.439392 329.068176,356.519867 326.817932,348.020782 
	C324.856903,340.614166 324.481537,333.350220 326.780609,325.948639 
	C329.149170,318.323273 334.727600,314.163269 342.715790,314.429535 
	C349.864899,314.667816 354.819397,318.857117 356.225464,326.678253 
	C357.800720,335.440796 358.024078,344.204620 353.575806,352.422119 
	C350.954590,357.264404 347.314850,360.536621 341.061768,360.491760 
M340.633667,345.833557 
	C342.286530,344.322357 345.158508,342.938293 345.332245,341.272797 
	C345.668701,338.047394 344.592224,334.634674 343.713379,331.405121 
	C343.649353,331.169739 339.826569,331.148560 338.830658,332.126709 
	C335.806458,335.096893 336.620026,342.315002 340.633667,345.833557 
z"/>
<path fill="#312454" opacity="1.000000" stroke="none" 
	d="
M144.958832,329.020844 
	C144.883667,327.899475 144.808517,326.778137 144.830322,324.929321 
	C145.949280,321.795807 146.971237,319.389709 147.993195,316.983612 
	C147.993179,316.983612 147.996338,316.996338 148.318054,316.874298 
	C151.072113,315.433472 153.504456,314.114716 155.936798,312.795929 
	C156.394516,312.747650 156.852249,312.699371 158.073929,312.638733 
	C162.549026,313.107727 166.260178,313.589050 169.971313,314.070374 
	C169.971313,314.070374 169.990601,314.007385 170.123657,314.294861 
	C170.819855,314.800507 171.383011,315.018616 171.946182,315.236725 
	C171.946182,315.236725 172.104843,315.399872 172.380310,315.660950 
	C173.000214,316.132019 173.344666,316.342041 173.689117,316.552063 
	C173.689117,316.552063 173.834930,316.832001 173.937653,317.298462 
	C173.492462,319.410828 172.944565,321.056793 172.396652,322.702728 
	C171.805573,322.755890 171.214493,322.809052 170.218079,322.630127 
	C169.578217,322.152588 169.292038,322.046692 168.954193,322.080292 
	C168.328522,321.664856 167.702866,321.249420 166.615036,320.457855 
	C163.981430,319.832886 161.809998,319.584076 159.638550,319.335266 
	C159.638550,319.335266 159.398575,319.415344 159.123611,319.751984 
	C158.024872,322.876251 157.701492,325.508789 160.997116,327.019470 
	C160.997116,327.019470 161.002487,326.994385 161.158005,327.302063 
	C163.903000,328.643585 166.492493,329.677429 169.081970,330.711273 
	C169.081970,330.711273 169.425232,330.952087 169.795441,331.285400 
	C170.723389,331.920807 171.281143,332.222931 171.838898,332.525024 
	C172.284973,332.992035 172.731049,333.459015 173.479233,334.428589 
	C174.299927,336.145752 174.884796,337.336792 175.326508,338.578735 
	C178.487518,347.466522 174.665726,354.629944 165.643356,357.276642 
	C159.049057,359.211060 152.940170,358.324097 147.069626,354.972321 
	C147.069626,354.972321 147.064560,354.933319 147.007965,354.556763 
	C147.416595,352.530151 147.881805,350.880157 148.347015,349.230103 
	C148.724442,349.193420 149.101852,349.156738 149.897949,349.234070 
	C150.316620,349.348114 150.694397,349.353271 150.694397,349.353271 
	C150.694397,349.353271 150.858978,349.211639 150.963837,349.584473 
	C154.677383,352.604095 158.702606,353.170135 161.836761,349.928772 
	C164.415314,347.262054 162.903641,344.098236 160.417267,341.667938 
	C160.417267,341.667938 160.407944,341.586029 160.188385,341.308044 
	C157.312149,339.697510 154.655472,338.365021 151.998795,337.032501 
	C151.998795,337.032501 151.675095,336.850586 151.335953,336.557983 
	C150.468445,335.998199 149.940094,335.731049 149.411728,335.463867 
	C149.411728,335.463867 149.173248,335.456512 149.147644,335.192505 
	C148.254959,334.170807 147.387894,333.413116 146.520828,332.655396 
	C146.520828,332.655396 146.527191,332.576141 146.460632,332.244141 
	C145.915665,330.948334 145.437256,329.984589 144.958832,329.020844 
z"/>
<path fill="#26235B" opacity="1.000000" stroke="none" 
	d="
M292.852722,309.998779 
	C292.852448,312.045868 292.852173,314.092957 292.467072,316.776428 
	C291.653290,327.588928 291.224396,337.765106 290.795502,347.941254 
	C290.833832,348.698242 290.872162,349.455200 290.528198,350.768066 
	C289.077240,356.752991 286.457245,359.469177 280.564209,357.151794 
	C279.694946,356.809967 278.328094,357.548187 277.252045,357.949280 
	C272.363434,359.771515 268.159912,358.692627 264.491608,355.098389 
	C257.662689,348.407257 257.115662,330.794800 263.524872,323.705200 
	C269.047363,317.596436 273.763855,316.664215 281.328064,320.183594 
	C282.189453,320.584320 283.056244,320.973480 284.979950,321.851715 
	C285.330719,318.153778 285.435883,315.106598 285.966858,312.135498 
	C286.314972,310.187805 287.278870,308.350159 287.966980,306.463226 
	C289.595551,307.641754 291.224121,308.820251 292.852722,309.998779 
M266.342712,352.689880 
	C266.342712,352.689880 266.377136,352.570038 266.534882,353.239838 
	C267.265381,353.690216 267.995880,354.140594 268.911621,354.561951 
	C268.911621,354.561951 269.024445,354.711639 269.502258,355.247955 
	C273.043640,357.335510 276.223267,357.311768 278.787598,353.747375 
	C278.787598,353.747375 278.705811,353.710632 279.434753,353.695618 
	C284.199799,350.449890 285.103149,347.015228 282.956207,339.173676 
	C283.010651,337.789215 283.065063,336.404755 283.730743,334.990295 
	C284.508118,334.691254 285.285461,334.392212 286.282043,334.008820 
	C284.987335,332.791321 284.048767,331.908752 282.966339,330.342468 
	C282.986389,329.878265 283.006439,329.414093 283.372070,328.497498 
	C282.878082,327.690063 282.384094,326.882629 281.965088,326.020599 
	C281.965088,326.020599 281.927002,326.105164 281.755585,325.458160 
	C280.817261,324.986725 279.878937,324.515289 278.399414,323.899323 
	C277.917725,323.617554 277.436066,323.335785 276.356934,322.585358 
	C273.069153,321.705750 269.865448,321.095459 268.031433,325.032440 
	C268.031433,325.032440 268.146027,325.132751 267.440979,325.211975 
	C266.388824,326.953369 265.336670,328.694733 264.243500,330.772095 
	C264.243500,330.772095 264.043945,331.045441 263.448608,331.448517 
	C263.223206,333.967072 262.997833,336.485596 262.905334,339.831573 
	C262.930267,341.226471 262.955231,342.621368 262.584137,344.581787 
	C263.359802,346.397308 264.135468,348.212799 265.135651,350.256042 
	C265.135651,350.256042 265.195648,350.570129 265.224152,351.238800 
	C265.638550,351.723816 266.052948,352.208832 266.342712,352.689880 
z"/>
<path fill="#43264D" opacity="1.000000" stroke="none" 
	d="
M188.231705,324.960022 
	C191.367432,322.722046 193.962280,320.645081 193.427094,316.369720 
	C193.354324,315.788452 195.202240,314.966705 196.160843,314.256287 
	C196.847183,315.346313 197.964645,316.380554 198.114563,317.539948 
	C198.317932,319.112701 197.780365,320.781311 197.596069,322.146362 
	C199.810379,324.770721 205.809616,322.058594 204.689255,327.426636 
	C204.412766,328.751404 200.176346,329.249664 196.856308,330.456451 
	C196.698593,331.453217 196.276657,333.520905 196.058640,335.609894 
	C195.403564,341.886627 194.912750,348.181396 194.191147,354.449951 
	C193.723267,358.514496 194.473785,361.303772 199.318954,361.699310 
	C200.472717,361.793457 201.500748,363.427887 202.586609,364.353851 
	C201.542618,365.347351 200.642899,366.946106 199.430954,367.235016 
	C192.215378,368.954926 188.470978,365.899780 188.992783,358.526855 
	C189.425949,352.406372 190.318466,346.309937 191.213394,340.233154 
	C192.005264,334.856140 192.798599,329.577637 188.231705,324.960022 
z"/>
<path fill="#4F2849" opacity="1.000000" stroke="none" 
	d="
M293.002014,309.710052 
	C291.224121,308.820251 289.595551,307.641754 287.966980,306.463226 
	C287.278870,308.350159 286.314972,310.187805 285.966858,312.135498 
	C285.435883,315.106598 285.330719,318.153778 284.979950,321.851715 
	C283.056244,320.973480 282.189453,320.584320 281.328064,320.183594 
	C273.763855,316.664215 269.047363,317.596436 263.524872,323.705200 
	C257.115662,330.794800 257.662689,348.407257 264.491608,355.098389 
	C268.159912,358.692627 272.363434,359.771515 277.252045,357.949280 
	C278.328094,357.548187 279.694946,356.809967 280.564209,357.151794 
	C286.457245,359.469177 289.077240,356.752991 290.440033,351.138733 
	C290.821136,351.777802 290.974579,352.601288 290.984741,353.426575 
	C291.075928,360.817291 288.869293,362.282043 281.930847,359.809570 
	C280.433990,359.276184 278.495148,359.303070 276.940979,359.730408 
	C270.777924,361.425140 265.181976,359.713531 261.416199,354.675568 
	C255.823090,347.192902 255.820694,330.683990 261.441650,323.347565 
	C265.681763,317.813416 271.080841,315.354462 278.074066,317.178131 
	C279.640320,317.586578 281.238373,317.873108 283.398254,318.340485 
	C283.712616,314.863190 284.036865,311.793365 284.255432,308.716064 
	C284.480835,305.542389 286.094971,304.567017 289.221222,304.713379 
	C292.574738,304.870422 293.709808,306.289215 293.002014,309.710052 
z"/>
<path fill="#27235B" opacity="1.000000" stroke="none" 
	d="
M239.104874,350.935852 
	C239.182037,350.605194 239.259216,350.274536 239.709747,349.321899 
	C239.906891,347.475342 239.730667,346.250763 239.554443,345.026215 
	C239.470337,344.260651 239.386246,343.495117 239.512512,341.984222 
	C239.462158,334.935242 239.051147,328.631744 239.043625,322.327789 
	C239.041672,320.699402 240.306122,319.069519 240.988846,317.440308 
	C242.012772,319.056549 243.695114,320.580322 243.937408,322.306305 
	C244.670258,327.526306 244.888077,332.821991 245.223953,338.093445 
	C245.550323,343.216064 245.983353,348.345947 245.965271,353.471222 
	C245.954422,356.549866 244.784500,358.680389 240.872299,356.865356 
	C239.180374,356.080414 237.012863,356.320587 235.049561,355.759766 
	C235.031433,354.977844 235.025162,354.531189 235.018890,354.084564 
	C235.018890,354.084564 235.027222,353.948730 235.336349,353.991791 
	C236.153488,353.669159 236.661514,353.303467 237.169525,352.937775 
	C237.309555,352.817780 237.449570,352.697784 237.988464,352.355225 
	C238.626526,351.733765 238.865707,351.334808 239.104874,350.935852 
z"/>
<path fill="#5E2D44" opacity="1.000000" stroke="none" 
	d="
M235.061401,356.095093 
	C237.012863,356.320587 239.180374,356.080414 240.872299,356.865356 
	C244.784500,358.680389 245.954422,356.549866 245.965271,353.471222 
	C245.983353,348.345947 245.550323,343.216064 245.223953,338.093445 
	C244.888077,332.821991 244.670258,327.526306 243.937408,322.306305 
	C243.695114,320.580322 242.012772,319.056549 240.988846,317.440308 
	C240.306122,319.069519 239.041672,320.699402 239.043625,322.327789 
	C239.051147,328.631744 239.462158,334.935242 239.548767,341.599762 
	C238.621628,334.373657 237.867844,326.786743 237.115997,319.199677 
	C236.830811,316.321960 238.437073,315.501373 241.000732,315.300201 
	C243.639465,315.093109 245.031601,315.797363 245.229385,318.695831 
	C246.043182,330.621765 247.045334,342.534821 247.861618,354.460571 
	C248.147095,358.631104 245.598923,359.991028 240.871094,358.960815 
	C238.678116,358.482971 236.285202,359.002441 233.992081,358.887360 
	C229.682373,358.671021 225.379288,358.322205 221.339417,357.702087 
	C226.164703,357.726105 230.893372,359.856140 235.061401,356.095093 
z"/>
<path fill="#3C234C" opacity="1.000000" stroke="none" 
	d="
M311.249390,345.059845 
	C311.221893,349.045197 311.194397,353.030518 311.158020,357.755310 
	C311.201385,358.681274 311.253693,358.867737 311.305969,359.054199 
	C311.329987,359.761047 311.354004,360.467896 311.337860,361.912903 
	C311.350128,363.440277 311.402527,364.229492 311.454956,365.018738 
	C311.358154,365.161560 311.261353,365.304382 310.642578,365.669250 
	C306.274719,366.422211 306.273468,363.885498 306.312561,361.207916 
	C306.455322,351.425415 306.554413,341.642273 306.669952,331.859375 
	C306.722534,330.540253 306.775116,329.221161 306.910187,327.122131 
	C306.917236,325.542236 306.841766,324.742249 306.766357,323.942291 
	C306.908630,323.614227 307.050873,323.286163 307.661407,322.644653 
	C311.105530,321.733307 311.371552,323.621429 311.377106,325.819916 
	C311.389099,330.583069 311.438843,335.346130 311.473145,340.109222 
	C311.398895,340.815948 311.324677,341.522675 311.163300,342.931641 
	C311.133881,344.109192 311.191620,344.584534 311.249390,345.059845 
z"/>
<path fill="#272357" opacity="1.000000" stroke="none" 
	d="
M235.049561,355.759766 
	C230.893372,359.856140 226.164703,357.726105 221.182693,357.373901 
	C220.759995,357.372162 220.704605,357.371979 220.594330,357.121857 
	C220.243698,356.605621 219.945114,356.491028 219.588287,356.528015 
	C219.588287,356.528015 219.465012,356.538574 219.502411,356.140930 
	C218.722412,354.818329 217.905014,353.893341 217.087616,352.968353 
	C217.087616,352.968353 216.862976,352.664856 216.877762,352.092224 
	C216.895538,350.993927 216.898544,350.468262 216.898972,349.624329 
	C216.606979,348.521271 216.317566,347.736450 216.019104,346.527100 
	C215.949295,344.404907 215.888535,342.707245 215.858612,340.541779 
	C215.889481,333.583527 215.889481,327.093109 215.889481,320.602692 
	C216.376587,320.554749 216.863693,320.506805 217.350800,320.458862 
	C217.595566,321.910980 218.034103,323.360931 218.050354,324.815613 
	C218.109772,330.130646 217.829102,335.457855 218.111069,340.757355 
	C218.206268,342.546600 219.592987,344.267090 220.389465,346.019012 
	C220.525528,346.469269 220.661606,346.919556 220.723175,347.815552 
	C220.584381,348.553406 220.690964,348.749115 220.968414,348.848419 
	C222.800507,355.664581 225.740814,356.835632 234.642319,354.114502 
	C235.025162,354.531189 235.031433,354.977844 235.049561,355.759766 
z"/>
<path fill="#5B2B45" opacity="1.000000" stroke="none" 
	d="
M220.467331,345.580017 
	C219.592987,344.267090 218.206268,342.546600 218.111069,340.757355 
	C217.829102,335.457855 218.109772,330.130646 218.050354,324.815613 
	C218.034103,323.360931 217.595566,321.910980 217.350800,320.458862 
	C216.863693,320.506805 216.376587,320.554749 215.889481,320.602692 
	C215.889481,327.093109 215.889481,333.583527 215.657593,340.539124 
	C215.425705,341.004272 215.020828,341.000763 215.020828,341.000763 
	C214.537247,334.581787 213.873962,328.167480 213.706604,321.740295 
	C213.668579,320.280365 215.349243,318.775665 216.238815,317.291595 
	C217.245804,318.661957 219.007141,319.966064 219.134201,321.413666 
	C219.826645,329.303284 220.116714,337.228210 220.467331,345.580017 
z"/>
<path fill="#D86955" opacity="1.000000" stroke="none" 
	d="
M338.834900,204.237305 
	C336.326202,217.097229 335.353668,230.252426 338.877777,243.369339 
	C340.030426,247.659485 341.838226,251.773621 343.384155,256.335815 
	C337.944763,252.001846 337.690063,245.136078 336.115662,238.853012 
	C333.827728,229.722534 334.000458,220.531265 336.121521,211.397522 
	C336.670441,209.033600 337.742950,206.791275 338.834900,204.237305 
z"/>
<path fill="#CC6557" opacity="1.000000" stroke="none" 
	d="
M147.131729,355.316833 
	C152.940170,358.324097 159.049057,359.211060 165.643356,357.276642 
	C174.665726,354.629944 178.487518,347.466522 175.326508,338.578735 
	C174.884796,337.336792 174.299927,336.145752 173.690033,334.549744 
	C178.980530,337.808258 178.537918,343.411346 177.494614,348.481049 
	C176.555054,353.046631 173.652542,356.600708 168.447662,358.036743 
	C162.069138,359.796570 155.890518,361.209198 149.669403,357.904694 
	C148.715988,357.398315 148.012756,356.420929 147.131729,355.316833 
z"/>
<path fill="#CC6354" opacity="1.000000" stroke="none" 
	d="
M306.374023,332.095398 
	C306.554413,341.642273 306.455322,351.425415 306.312561,361.207916 
	C306.273468,363.885498 306.274719,366.422211 310.515900,365.894928 
	C308.284668,369.029327 305.402374,367.850800 305.341125,364.741333 
	C305.128510,353.947021 305.764771,343.136047 306.374023,332.095398 
z"/>
<path fill="#D86955" opacity="1.000000" stroke="none" 
	d="
M409.681824,235.869049 
	C409.643311,230.624588 410.599548,225.102905 409.965027,219.770508 
	C409.214325,213.461761 407.090820,207.316406 405.524719,200.726532 
	C406.085571,200.585922 407.054565,200.662582 407.228607,201.074844 
	C411.965546,212.294373 414.150391,223.740173 409.681824,235.869049 
z"/>
<path fill="#D86955" opacity="1.000000" stroke="none" 
	d="
M395.397675,186.109436 
	C386.332245,179.217300 376.430542,175.488007 364.352875,178.601501 
	C367.403198,174.270523 372.256927,176.017731 376.420715,176.194397 
	C384.007385,176.516312 390.688477,179.442673 395.397675,186.109436 
z"/>
<path fill="#D86955" opacity="1.000000" stroke="none" 
	d="
M356.158142,270.192230 
	C362.498260,271.171997 368.921906,273.320129 375.405365,273.518951 
	C380.308319,273.669312 385.287598,271.330292 390.587708,270.014099 
	C390.229706,270.789948 389.680206,271.916473 388.778809,272.470581 
	C380.058807,277.831177 364.689697,276.865204 356.158142,270.192230 
z"/>
<path fill="#4F2849" opacity="1.000000" stroke="none" 
	d="
M290.967651,347.574493 
	C291.224396,337.765106 291.653290,327.588928 292.383423,317.207489 
	C292.169678,327.070709 291.654724,337.139221 290.967651,347.574493 
z"/>
<path fill="#D86955" opacity="1.000000" stroke="none" 
	d="
M397.184448,264.894714 
	C402.918182,257.140808 406.896179,248.373856 409.007355,238.330750 
	C408.758179,241.707565 409.173828,245.801926 407.721649,249.065018 
	C405.186188,254.762253 404.284668,261.787415 397.184448,264.894714 
z"/>
<path fill="#CC6354" opacity="1.000000" stroke="none" 
	d="
M311.749817,339.865845 
	C311.438843,335.346130 311.389099,330.583069 311.377106,325.819916 
	C311.371552,323.621429 311.105530,321.733307 307.730164,322.385254 
	C307.193634,321.642487 307.056580,320.845642 306.943665,319.538086 
	C306.967804,319.027374 307.160919,318.802094 307.530701,318.865845 
	C309.323914,318.691406 310.747345,318.453217 312.395752,318.180237 
	C312.620728,318.145416 313.074280,318.105652 313.074280,318.105652 
	C313.016357,323.344635 313.029846,328.585907 312.863464,333.821442 
	C312.801788,335.762054 312.317871,337.689178 311.749817,339.865845 
z"/>
<path fill="#CC6557" opacity="1.000000" stroke="none" 
	d="
M160.333725,342.096436 
	C162.903641,344.098236 164.415314,347.262054 161.836761,349.928772 
	C158.702606,353.170135 154.677383,352.604095 150.885468,349.649384 
	C151.025879,349.344543 151.357056,349.303467 151.672058,349.357208 
	C160.383698,350.842865 160.383423,350.844482 160.333725,342.096436 
z"/>
<path fill="#D86955" opacity="1.000000" stroke="none" 
	d="
M361.763733,178.837814 
	C358.030762,181.352280 354.023102,183.708511 349.722839,186.223297 
	C351.113525,180.156662 356.519440,179.759674 361.763733,178.837814 
z"/>
<path fill="#CC6557" opacity="1.000000" stroke="none" 
	d="
M169.788635,313.755829 
	C166.260178,313.589050 162.549026,313.107727 158.401550,312.528076 
	C162.082504,310.039001 165.951050,310.510773 169.788635,313.755829 
z"/>
<path fill="#CC6557" opacity="1.000000" stroke="none" 
	d="
M152.178284,337.318176 
	C154.655472,338.365021 157.312149,339.697510 160.147171,341.306885 
	C157.669601,340.257111 155.013687,338.930481 152.178284,337.318176 
z"/>
<path fill="#D86955" opacity="1.000000" stroke="none" 
	d="
M342.635193,195.091644 
	C341.909698,197.659546 340.840637,200.323929 339.499939,203.230469 
	C340.249451,200.711136 341.270538,197.949631 342.635193,195.091644 
z"/>
<path fill="#CC6354" opacity="1.000000" stroke="none" 
	d="
M304.811920,313.870239 
	C306.303009,309.443024 309.113129,309.179810 312.510956,311.662567 
	C311.875458,311.945923 311.429871,311.937958 310.619965,311.929443 
	C309.530151,311.981812 308.804657,312.034760 307.765839,312.050934 
	C306.743896,312.751953 306.035278,313.489746 305.197998,314.138184 
	C305.069336,314.048798 304.811920,313.870239 304.811920,313.870239 
z"/>
<path fill="#CC6557" opacity="1.000000" stroke="none" 
	d="
M155.660553,312.642120 
	C153.504456,314.114716 151.072113,315.433472 148.311813,316.873260 
	C150.450668,315.492279 152.917496,313.990295 155.660553,312.642120 
z"/>
<path fill="#CC6557" opacity="1.000000" stroke="none" 
	d="
M160.916672,326.618927 
	C157.701492,325.508789 158.024872,322.876251 159.093872,319.874939 
	C159.838135,321.846954 160.337189,324.032684 160.916672,326.618927 
z"/>
<path fill="#CC6557" opacity="1.000000" stroke="none" 
	d="
M168.930756,330.416199 
	C166.492493,329.677429 163.903000,328.643585 161.146454,327.307922 
	C163.579453,328.044403 166.179504,329.082764 168.930756,330.416199 
z"/>
<path fill="#CC6557" opacity="1.000000" stroke="none" 
	d="
M147.651260,317.056641 
	C146.971237,319.389709 145.949280,321.795807 144.760010,324.513672 
	C143.410461,321.523193 144.337952,318.965668 147.651260,317.056641 
z"/>
<path fill="#5E2D44" opacity="1.000000" stroke="none" 
	d="
M214.964691,341.447784 
	C215.020828,341.000763 215.425705,341.004272 215.626740,341.006958 
	C215.888535,342.707245 215.949295,344.404907 216.032959,346.848053 
	C216.337738,348.376587 216.619629,349.159576 216.901550,349.942596 
	C216.898544,350.468262 216.895538,350.993927 216.831970,351.909058 
	C216.150467,348.830627 215.529510,345.362732 214.964691,341.447784 
z"/>
<path fill="#D86955" opacity="1.000000" stroke="none" 
	d="
M343.347412,257.045532 
	C344.610260,258.199463 345.802917,259.725861 347.063660,261.580780 
	C345.846863,260.412231 344.562012,258.915131 343.347412,257.045532 
z"/>
<path fill="#CC6557" opacity="1.000000" stroke="none" 
	d="
M172.750122,322.628510 
	C172.944565,321.056793 173.492462,319.410828 174.064240,317.392670 
	C177.416458,319.515594 175.261932,321.035278 172.750122,322.628510 
z"/>
<path fill="#D86955" opacity="1.000000" stroke="none" 
	d="
M404.912598,198.774048 
	C403.649994,197.298874 402.403229,195.453094 401.112000,193.264618 
	C402.354523,194.749100 403.641479,196.576263 404.912598,198.774048 
z"/>
<path fill="#CC6557" opacity="1.000000" stroke="none" 
	d="
M160.057220,319.487488 
	C161.809998,319.584076 163.981430,319.832886 166.340363,320.375519 
	C164.510544,320.326080 162.493210,319.982880 160.057220,319.487488 
z"/>
<path fill="#CC6557" opacity="1.000000" stroke="none" 
	d="
M148.011780,349.321960 
	C147.881805,350.880157 147.416595,352.530151 146.988373,354.555176 
	C143.365372,352.633698 145.797577,351.056396 148.011780,349.321960 
z"/>
<path fill="#D86955" opacity="1.000000" stroke="none" 
	d="
M350.509033,265.906158 
	C352.092194,266.737885 353.651642,267.931976 355.427765,269.383667 
	C353.924744,268.516998 352.205017,267.392792 350.509033,265.906158 
z"/>
<path fill="#CC6354" opacity="1.000000" stroke="none" 
	d="
M313.922791,313.074646 
	C314.116119,314.311981 314.309448,315.549347 314.224915,316.497681 
	C313.938934,315.163971 313.930878,314.119324 313.922791,313.074646 
z"/>
<path fill="#CC6354" opacity="1.000000" stroke="none" 
	d="
M306.871338,319.140106 
	C306.038361,317.664948 305.301849,316.077057 304.688660,314.179688 
	C304.811920,313.870239 305.069336,314.048798 305.237701,314.449982 
	C305.991028,316.168152 306.575958,317.485138 307.160889,318.802094 
	C307.160919,318.802094 306.967804,319.027374 306.871338,319.140106 
z"/>
<path fill="#5E2D44" opacity="1.000000" stroke="none" 
	d="
M239.411957,345.406738 
	C239.730667,346.250763 239.906891,347.475342 239.852615,348.833008 
	C239.504578,347.906494 239.387039,346.846893 239.411957,345.406738 
z"/>
<path fill="#592541" opacity="1.000000" stroke="none" 
	d="
M313.937256,313.055969 
	C313.930878,314.119324 313.938934,315.163971 313.926147,316.603149 
	C313.905304,316.997681 313.570709,317.105591 313.265076,317.042450 
	C312.959473,316.979309 312.690887,316.774719 312.727234,316.450806 
	C312.170441,314.727966 311.577332,313.328979 310.984253,311.929993 
	C311.429871,311.937958 311.875458,311.945923 312.655670,311.987610 
	C312.990265,312.021362 312.999023,311.995575 313.075836,312.239166 
	C313.421967,312.679077 313.691284,312.875366 313.960602,313.071686 
	C313.960602,313.071686 313.951752,313.037292 313.937256,313.055969 
z"/>
<path fill="#CC6557" opacity="1.000000" stroke="none" 
	d="
M146.485535,333.005310 
	C147.387894,333.413116 148.254959,334.170807 149.266327,335.178528 
	C148.423813,334.737457 147.437012,334.046326 146.485535,333.005310 
z"/>
<path fill="#5E2D44" opacity="1.000000" stroke="none" 
	d="
M217.092926,353.285217 
	C217.905014,353.893341 218.722412,354.818329 219.489685,356.080383 
	C218.659119,355.479004 217.878677,354.540558 217.092926,353.285217 
z"/>
<path fill="#D86955" opacity="1.000000" stroke="none" 
	d="
M347.127899,262.231140 
	C348.132935,262.885132 349.167542,263.894379 350.328888,265.186096 
	C349.356232,264.507843 348.256866,263.547089 347.127899,262.231140 
z"/>
<path fill="#CC6557" opacity="1.000000" stroke="none" 
	d="
M144.786819,329.266113 
	C145.437256,329.984589 145.915665,330.948334 146.422119,332.234253 
	C145.838364,331.541351 145.226578,330.526367 144.786819,329.266113 
z"/>
<path fill="#CC6354" opacity="1.000000" stroke="none" 
	d="
M311.685730,364.910950 
	C311.402527,364.229492 311.350128,363.440277 311.390564,362.263062 
	C311.627808,362.851135 311.772186,363.827179 311.685730,364.910950 
z"/>
<path fill="#CC6354" opacity="1.000000" stroke="none" 
	d="
M306.514709,324.050293 
	C306.841766,324.742249 306.917236,325.542236 306.860992,326.727905 
	C306.573914,326.128540 306.418518,325.143402 306.514709,324.050293 
z"/>
<path fill="#D86955" opacity="1.000000" stroke="none" 
	d="
M346.272400,189.395111 
	C345.980957,190.460953 345.339050,191.621689 344.414642,192.959137 
	C344.728760,191.920593 345.325378,190.705292 346.272400,189.395111 
z"/>
<path fill="#5E2D44" opacity="1.000000" stroke="none" 
	d="
M236.936722,352.855377 
	C236.661514,353.303467 236.153488,353.669159 235.404282,353.995483 
	C235.676682,353.561737 236.190292,353.167358 236.936722,352.855377 
z"/>
<path fill="#5E2D44" opacity="1.000000" stroke="none" 
	d="
M238.934280,350.996643 
	C238.865707,351.334808 238.626526,351.733765 238.202759,352.180328 
	C238.266663,351.837769 238.515167,351.447601 238.934280,350.996643 
z"/>
<path fill="#D86955" opacity="1.000000" stroke="none" 
	d="
M394.121613,267.854309 
	C394.323151,267.302673 394.842316,266.686798 395.651062,265.965942 
	C395.440216,266.504028 394.939728,267.147064 394.121613,267.854309 
z"/>
<path fill="#D86955" opacity="1.000000" stroke="none" 
	d="
M396.883362,187.709564 
	C396.518341,187.671112 396.091400,187.355103 395.573730,186.782562 
	C395.929138,186.828018 396.375275,187.130020 396.883362,187.709564 
z"/>
<path fill="#D86955" opacity="1.000000" stroke="none" 
	d="
M349.165527,186.403503 
	C349.117920,186.770050 348.794464,187.222672 348.199310,187.761505 
	C348.248322,187.395004 348.569000,186.942276 349.165527,186.403503 
z"/>
<path fill="#CC6557" opacity="1.000000" stroke="none" 
	d="
M168.963715,322.264862 
	C169.292038,322.046692 169.578217,322.152588 169.921143,322.606750 
	C169.677444,322.693481 169.325333,322.571472 168.963715,322.264862 
z"/>
<path fill="#CC6557" opacity="1.000000" stroke="none" 
	d="
M171.688416,332.229279 
	C171.281143,332.222931 170.723389,331.920807 169.997025,331.342957 
	C170.398270,331.355957 170.968124,331.644714 171.688416,332.229279 
z"/>
<path fill="#CC6354" opacity="1.000000" stroke="none" 
	d="
M311.393188,344.872559 
	C311.191620,344.584534 311.133881,344.109192 311.182068,343.286896 
	C311.371002,343.521698 311.454010,344.103485 311.393188,344.872559 
z"/>
<path fill="#CC6557" opacity="1.000000" stroke="none" 
	d="
M149.531433,335.757904 
	C149.940094,335.731049 150.468445,335.998199 151.153381,336.524231 
	C150.757019,336.539368 150.204071,336.295654 149.531433,335.757904 
z"/>
<path fill="#CC6557" opacity="1.000000" stroke="none" 
	d="
M171.766342,314.989136 
	C171.383011,315.018616 170.819855,314.800507 170.097717,314.315186 
	C170.487976,314.279205 171.037247,314.510376 171.766342,314.989136 
z"/>
<path fill="#5E2D44" opacity="1.000000" stroke="none" 
	d="
M219.702087,356.744019 
	C219.945114,356.491028 220.243698,356.605621 220.589798,357.094635 
	C220.347534,357.333252 220.054321,357.214050 219.702087,356.744019 
z"/>
<path fill="#CC6354" opacity="1.000000" stroke="none" 
	d="
M311.406067,358.926575 
	C311.253693,358.867737 311.201385,358.681274 311.208740,358.209900 
	C311.533997,358.166382 311.613281,358.457703 311.406067,358.926575 
z"/>
<path fill="#CC6354" opacity="1.000000" stroke="none" 
	d="
M313.850464,312.847961 
	C313.691284,312.875366 313.421967,312.679077 313.063446,312.242249 
	C313.289398,312.135651 313.544769,312.343170 313.850464,312.847961 
z"/>
<path fill="#5B2B45" opacity="1.000000" stroke="none" 
	d="
M220.995361,348.644043 
	C220.690964,348.749115 220.584381,348.553406 220.736877,348.169434 
	C220.825073,348.077606 221.022293,348.439667 220.995361,348.644043 
z"/>
<path fill="#CC6557" opacity="1.000000" stroke="none" 
	d="
M150.688141,349.216705 
	C150.694397,349.353271 150.316620,349.348114 150.181946,349.216309 
	C150.047256,349.084473 150.365616,348.886414 150.365616,348.886414 
	C150.365616,348.886414 150.681885,349.080139 150.688141,349.216705 
z"/>
<path fill="#D86955" opacity="1.000000" stroke="none" 
	d="
M400.727631,192.222183 
	C400.526337,192.254715 400.174591,191.994156 399.687897,191.429398 
	C399.894379,191.393173 400.235779,191.661133 400.727631,192.222183 
z"/>
<path fill="#CC6557" opacity="1.000000" stroke="none" 
	d="
M173.544830,316.276428 
	C173.344666,316.342041 173.000214,316.132019 172.494080,315.660065 
	C172.688446,315.599030 173.044495,315.799927 173.544830,316.276428 
z"/>
<path fill="#D86955" opacity="1.000000" stroke="none" 
	d="
M343.920837,193.249298 
	C344.000122,193.434464 343.842804,193.817932 343.418030,194.376984 
	C343.328430,194.184250 343.506348,193.815918 343.920837,193.249298 
z"/>
<path fill="#592541" opacity="1.000000" stroke="none" 
	d="
M313.127747,317.877991 
	C313.074280,318.105652 312.620728,318.145416 312.302612,318.059204 
	C311.984467,317.972961 311.798492,317.731171 311.953827,317.577972 
	C312.312958,317.216949 312.506866,317.000244 312.690887,316.774719 
	C312.690887,316.774719 312.959473,316.979309 313.093842,317.082153 
	C313.228210,317.185028 313.181244,317.650330 313.127747,317.877991 
z"/>
<path fill="#FA6E43" opacity="1.000000" stroke="none" 
	d="
M372.302155,185.258087 
	C386.131317,186.007736 397.329498,195.803116 400.544342,211.153488 
	C403.690186,226.174301 402.484650,241.045990 394.875702,254.829285 
	C386.848969,269.369385 365.536469,270.439362 355.873199,256.869812 
	C344.969543,241.558441 344.935333,211.352707 355.674042,195.937851 
	C359.699341,190.159775 364.998566,186.564636 372.302155,185.258087 
z"/>
<path fill="#E26B50" opacity="1.000000" stroke="none" 
	d="
M340.262695,345.720306 
	C336.620026,342.315002 335.806458,335.096893 338.830658,332.126709 
	C339.826569,331.148560 343.649353,331.169739 343.713379,331.405121 
	C344.592224,334.634674 345.668701,338.047394 345.332245,341.272797 
	C345.158508,342.938293 342.286530,344.322357 340.262695,345.720306 
z"/>
<path fill="#F36D47" opacity="1.000000" stroke="none" 
	d="
M283.119476,335.020294 
	C283.065063,336.404755 283.010651,337.789215 282.808777,339.935303 
	C281.342804,345.034821 280.024292,349.372711 278.705811,353.710632 
	C278.705811,353.710632 278.787598,353.747375 278.395905,353.807617 
	C275.010956,354.149078 272.017700,354.430359 269.024445,354.711639 
	C269.024445,354.711639 268.911621,354.561951 268.661652,354.297546 
	C267.733490,353.545441 267.055298,353.057739 266.377136,352.570038 
	C266.377136,352.570038 266.342712,352.689880 266.347656,352.376465 
	C265.966949,351.565430 265.581299,351.067780 265.195648,350.570129 
	C265.195648,350.570129 265.135651,350.256042 264.983704,349.785278 
	C264.214569,347.548431 263.597351,345.782349 262.980164,344.016266 
	C262.955231,342.621368 262.930267,341.226471 262.949554,339.025482 
	C263.343842,335.828064 263.693878,333.436768 264.043945,331.045441 
	C264.043945,331.045441 264.243500,330.772095 264.531097,330.406189 
	C265.927795,328.404449 267.036926,326.768616 268.146027,325.132751 
	C268.146027,325.132751 268.031433,325.032440 268.439453,325.011414 
	C271.549805,324.344910 274.252106,323.699432 276.954407,323.054016 
	C277.436066,323.335785 277.917725,323.617554 278.819244,324.244873 
	C280.135040,325.095306 281.031036,325.600220 281.927002,326.105164 
	C281.927002,326.105164 281.965088,326.020599 281.954468,326.363281 
	C282.304688,327.453918 282.665588,328.201904 283.026489,328.949890 
	C283.006439,329.414093 282.986389,329.878265 282.931580,331.075256 
	C282.971039,332.878815 283.045258,333.949554 283.119476,335.020294 
z"/>
<path fill="#4F2849" opacity="1.000000" stroke="none" 
	d="
M279.070282,353.703125 
	C280.024292,349.372711 281.342804,345.034821 282.848694,340.349915 
	C285.103149,347.015228 284.199799,350.449890 279.070282,353.703125 
z"/>
<path fill="#4F2849" opacity="1.000000" stroke="none" 
	d="
M269.263367,354.979797 
	C272.017700,354.430359 275.010956,354.149078 278.392517,353.762878 
	C276.223267,357.311768 273.043640,357.335510 269.263367,354.979797 
z"/>
<path fill="#4F2849" opacity="1.000000" stroke="none" 
	d="
M276.655670,322.819672 
	C274.252106,323.699432 271.549805,324.344910 268.483643,325.073425 
	C269.865448,321.095459 273.069153,321.705750 276.655670,322.819672 
z"/>
<path fill="#4F2849" opacity="1.000000" stroke="none" 
	d="
M262.782166,344.299011 
	C263.597351,345.782349 264.214569,347.548431 264.871460,349.671417 
	C264.135468,348.212799 263.359802,346.397308 262.782166,344.299011 
z"/>
<path fill="#4F2849" opacity="1.000000" stroke="none" 
	d="
M263.746277,331.246979 
	C263.693878,333.436768 263.343842,335.828064 262.883118,338.611755 
	C262.997833,336.485596 263.223206,333.967072 263.746277,331.246979 
z"/>
<path fill="#4F2849" opacity="1.000000" stroke="none" 
	d="
M283.425110,335.005310 
	C283.045258,333.949554 282.971039,332.878815 283.003540,331.417114 
	C284.048767,331.908752 284.987335,332.791321 286.282043,334.008820 
	C285.285461,334.392212 284.508118,334.691254 283.425110,335.005310 
z"/>
<path fill="#4F2849" opacity="1.000000" stroke="none" 
	d="
M267.793518,325.172363 
	C267.036926,326.768616 265.927795,328.404449 264.551575,330.238220 
	C265.336670,328.694733 266.388824,326.953369 267.793518,325.172363 
z"/>
<path fill="#4F2849" opacity="1.000000" stroke="none" 
	d="
M283.199280,328.723694 
	C282.665588,328.201904 282.304688,327.453918 281.916962,326.390564 
	C282.384094,326.882629 282.878082,327.690063 283.199280,328.723694 
z"/>
<path fill="#4F2849" opacity="1.000000" stroke="none" 
	d="
M281.841309,325.781677 
	C281.031036,325.600220 280.135040,325.095306 279.089844,324.317139 
	C279.878937,324.515289 280.817261,324.986725 281.841309,325.781677 
z"/>
<path fill="#4F2849" opacity="1.000000" stroke="none" 
	d="
M266.455994,352.904938 
	C267.055298,353.057739 267.733490,353.545441 268.569031,354.312073 
	C267.995880,354.140594 267.265381,353.690216 266.455994,352.904938 
z"/>
<path fill="#4F2849" opacity="1.000000" stroke="none" 
	d="
M265.209900,350.904480 
	C265.581299,351.067780 265.966949,351.565430 266.409973,352.378479 
	C266.052948,352.208832 265.638550,351.723816 265.209900,350.904480 
z"/>
<path fill="#5B2B45" opacity="1.000000" stroke="none" 
	d="
M216.898956,349.624329 
	C216.619629,349.159576 216.337738,348.376587 216.041992,347.272583 
	C216.317566,347.736450 216.606979,348.521271 216.898956,349.624329 
z"/>
<path fill="#592541" opacity="1.000000" stroke="none" 
	d="
M307.530701,318.865845 
	C306.575958,317.485138 305.991028,316.168152 305.366364,314.539368 
	C306.035278,313.489746 306.743896,312.751953 307.607330,312.359985 
	C306.681854,316.329224 307.742188,318.233368 311.798492,317.731171 
	C311.798492,317.731171 311.984467,317.972961 312.077637,318.093994 
	C310.747345,318.453217 309.323914,318.691406 307.530701,318.865845 
z"/>
<path fill="#272354" opacity="1.000000" stroke="none" 
	d="
M311.953827,317.577972 
	C307.742188,318.233368 306.681854,316.329224 307.920624,312.396729 
	C308.804657,312.034760 309.530151,311.981812 310.619965,311.929443 
	C311.577332,313.328979 312.170441,314.727966 312.727234,316.450806 
	C312.506866,317.000244 312.312958,317.216949 311.953827,317.577972 
z"/>
</svg>